<?xml version="1.0" encoding="utf-8"?>
<!-- Generator: Adobe Illustrator 24.3.0, SVG Export Plug-In . SVG Version: 6.00 Build 0)  -->
<svg version="1.1" id="Слой_1" xmlns="http://www.w3.org/2000/svg" xmlns:xlink="http://www.w3.org/1999/xlink" x="0px" y="0px"
	 viewBox="0 0 250 34" style="enable-background:new 0 0 250 34;" xml:space="preserve">
<style type="text/css">
	.st0{fill:none;}
	.st1{fill:#F39200;}
	.st2{font-family:'Montserrat-LightItalic';}
	.st3{font-size:24.6619px;}
	.st4{fill:#FF9900;}
</style>
<rect x="62.8" y="11.5" class="st0" width="178.8" height="21.5"/>
<text transform="matrix(1 0 0 1 75.7078 24.1719)" class="st1 st2 st3">typescriptbeast</text>
<g>
	<path class="st4" d="M32.4,30.9c0.1,0,0.1-0.1,0.2-0.1c0.6-0.1,1.2-0.2,1.8-0.3c0.5-0.1,0.9-0.1,1.4-0.2c0.4,0,0.8-0.1,1.2-0.1
		c0.5,0,0.9-0.1,1.4-0.1c0.1,0,0.2-0.1,0.2-0.2c0-0.1,0-0.2,0-0.2c-0.1-0.2,0-0.3-0.1-0.5c0-0.2-0.1-0.4-0.1-0.6
		c0-0.2-0.1-0.5-0.1-0.7c0-0.1-0.1-0.3-0.1-0.4c0-0.2-0.1-0.4-0.1-0.6c0-0.2,0-0.4-0.1-0.6c0-0.2-0.1-0.5-0.1-0.7c0-0.1,0-0.1,0-0.2
		c0-0.1,0-0.2-0.1-0.3c0,0,0-0.1,0-0.1c0-0.2,0-0.4-0.1-0.6c0-0.2-0.1-0.4-0.1-0.6c0-0.2-0.1-0.4-0.1-0.6c0-0.1,0-0.1,0-0.2
		c0-0.1,0-0.1,0-0.2c0-0.3-0.1-0.6-0.1-0.9c0-0.1-0.1-0.1-0.1-0.1c0,0-0.1,0-0.1,0c-0.2,0-0.5,0-0.7,0c-0.5,0-1,0-1.5,0
		c-0.2,0-0.3,0-0.5,0c-0.1,0-0.2-0.1-0.3-0.2c-0.2-0.2-0.3-0.5-0.5-0.8c-0.1-0.3-0.3-0.6-0.4-0.9c-0.1-0.3-0.2-0.7-0.2-1
		c0-0.2-0.1-0.4-0.1-0.7c0-0.1,0-0.2,0-0.2c0,0,0-0.1-0.1-0.1c-0.2,0-0.4,0-0.6,0.1c0,0.1,0.1,0.1,0.1,0.2c0.1,0.1,0.3,0.3,0.3,0.5
		c0.1,0.2,0,0.3-0.2,0.3c-0.2,0-0.5,0-0.7-0.1c-0.4-0.1-0.7-0.2-1-0.4c0,0-0.1,0-0.1,0c-0.2-0.1-0.2,0-0.2,0.1
		c0,0.2-0.1,0.2-0.2,0.2c-0.3,0-0.6,0.1-1,0.1c-0.4,0-0.8,0.1-1.3,0.1c-0.6,0-1.3,0.1-1.9-0.1c-0.3-0.1-0.6,0-0.9,0
		c-0.4,0-0.7,0.1-1.1,0.1c-0.6,0.1-1.1,0.1-1.7,0.2c-0.5,0.1-0.9,0.1-1.4,0.2c-0.5,0.1-1,0.1-1.5,0.2c-0.3,0-0.7,0.1-1,0.1
		c-0.2,0-0.4-0.1-0.6-0.2c-0.1,0-0.1-0.1-0.1-0.2c0-0.1,0-0.1,0.1-0.2c0.1,0,0.2,0,0.3-0.1c0.5-0.1,1-0.1,1.5-0.2
		c0.5-0.1,0.9-0.1,1.4-0.2c0.5-0.1,0.9-0.1,1.4-0.2c0.4,0,0.7-0.1,1.1-0.1c0.4,0,0.7-0.1,1.1-0.1c0.1,0,0.1,0,0.2,0
		c0.1,0,0.2,0,0.3-0.2c0-0.1,0.1-0.1,0.2-0.2c0.1-0.1,0.2-0.1,0.4-0.2c0.1,0,0.1-0.1,0.2-0.1c0,0,0,0,0-0.1c-0.1,0-0.1-0.1-0.2-0.1
		c0-0.1,0-0.2,0-0.3c0-0.2,0.1-0.3,0.1-0.5c0.1-0.6,0.3-1.1,0.5-1.7c0.2-0.5,0.5-1,0.9-1.5c0.4-0.6,0.9-1.2,1.5-1.7
		c0.5-0.4,1-0.9,1.5-1.2c1.1-0.8,2.3-1.4,3.6-1.8C34.6,8.3,35.3,8.2,36,8c0.2,0,0.4-0.1,0.6-0.1c0.1,0,0.1,0,0.2-0.1
		c-0.1,0-0.1-0.1-0.1-0.1c-0.1,0-0.2,0-0.3,0c-0.3,0-0.7,0-1,0c-0.5,0-1.1-0.1-1.6-0.1c-0.2,0-0.5,0-0.7,0c-0.5,0-1-0.1-1.4-0.1
		c-0.4,0-0.9-0.1-1.3-0.1c-0.4,0-0.8-0.1-1.2-0.1c-0.4,0-0.7-0.1-1.1-0.1c-0.3,0-0.6-0.1-0.9-0.1c-0.4,0-0.7-0.1-1.1-0.1
		c-0.5,0-0.9-0.1-1.4-0.2c-0.6-0.1-1.2-0.2-1.8-0.2c-0.7-0.1-1.5-0.3-2.2-0.5c-0.2-0.1-0.4-0.1-0.6-0.2C20.1,6,20,5.9,20,5.9
		c0.1-0.1,0.2-0.1,0.3-0.2c0.4-0.1,0.8-0.2,1.2-0.3c0.8-0.2,1.6-0.3,2.4-0.4c0.9-0.1,1.7-0.3,2.6-0.4c0.9-0.1,1.8-0.2,2.7-0.4
		C30,4.1,30.9,4,31.7,3.9c0.6-0.1,1.1-0.1,1.7-0.2c0.7-0.1,1.4-0.2,2.1-0.2c0.6-0.1,1.2-0.1,1.8-0.2c0.5-0.1,1-0.1,1.5-0.2
		c0.6-0.1,1.3-0.1,1.9-0.2c0.4,0,0.8-0.1,1.2-0.1c0.4,0,0.9-0.1,1.3-0.1c0.3,0,0.6-0.1,0.9-0.1c0.4,0,0.8-0.1,1.2-0.1
		c0.4,0,0.8,0,1.3,0c0.8,0.1,1.7,0.3,2.5,0.4c1,0.2,2,0.4,2.9,0.7c1,0.2,1.9,0.5,2.9,0.7c1.8,0.5,3.6,1,5.4,1.5
		c1.5,0.4,3,0.9,4.5,1.4c0.3,0.1,0.5,0.2,0.8,0.3c0.1,0,0.2,0.1,0.2,0.2c-0.1,0-0.1,0.1-0.2,0.1c-0.3,0.1-0.6,0.1-0.9,0.1
		C64.4,7.9,64,8,63.6,8c-0.2,0-0.4,0-0.7,0c-0.5,0-0.9,0-1.4,0c-0.5,0-1,0-1.5,0c-0.8,0-1.5,0-2.3,0c-2,0-4,0-6,0
		c-0.2,0-0.4,0-0.6,0c-0.1,0-0.1,0-0.2,0c0,0,0,0,0,0c0.1,0,0.1,0.1,0.2,0.1c0.6,0.3,1.2,0.6,1.8,0.9c0.8,0.5,1.5,1,2.1,1.6
		c0.6,0.6,1.1,1.2,1.6,1.8c0.3,0.5,0.6,1,0.8,1.4c0,0,0,0,0,0c0.1,0.3,0.1,0.3,0.4,0.3c0.4,0,0.8-0.1,1.1-0.1c0.5-0.1,1-0.1,1.5-0.2
		c0.4,0,0.7-0.1,1.1-0.1c0.4,0,0.8-0.1,1.1-0.1c0.4,0,0.7-0.1,1.1-0.1c0.4,0,0.7-0.1,1.1-0.1c0.4,0,0.7-0.1,1.1-0.1
		c0.4,0,0.7-0.1,1.1-0.1c0.5-0.1,1-0.1,1.5-0.2c0.5-0.1,0.9-0.1,1.4-0.2c0.5-0.1,1-0.1,1.5-0.2c0.5-0.1,0.9-0.1,1.4-0.2
		c0.5-0.1,0.9-0.1,1.4-0.2c0.3,0,0.6-0.1,0.9-0.1c0.1,0,0.1,0,0.2,0.1c0.1,0.1,0.2,0.3,0.3,0.5c-0.1,0.1-0.3,0.1-0.4,0.1
		c-0.4,0-0.8,0.1-1.2,0.1c-0.4,0-0.7,0.1-1.1,0.1c-0.5,0.1-1.1,0.1-1.6,0.2c-0.4,0-0.8,0.1-1.1,0.1c-0.4,0-0.8,0.1-1.2,0.1
		c-0.4,0-0.7,0.1-1.1,0.1c-0.4,0-0.8,0.1-1.2,0.1c-0.4,0-0.8,0.1-1.2,0.1c-0.4,0-0.8,0.1-1.2,0.1c-0.4,0-0.8,0.1-1.1,0.1
		c-0.4,0-0.8,0.1-1.2,0.1c-0.4,0-0.8,0.1-1.2,0.1c-0.4,0-0.8,0.1-1.1,0.1c-0.4,0-0.8,0.1-1.2,0.1c-0.2,0-0.5,0-0.7,0.1
		c0,0-0.1,0-0.1,0c0,0.1,0,0.1,0.1,0.2c0,0.2,0.1,0.4,0.1,0.6c0,0.2,0.1,0.3,0.1,0.5c0,0.2,0.1,0.2,0.3,0.3c0.2,0,0.4,0.1,0.6,0.1
		c0.2,0.1,0.5,0.2,0.7,0.3c0.2,0.1,0.2,0.2,0.1,0.4c-0.1,0.2-0.3,0.4-0.5,0.5c-0.3,0.1-0.7,0.2-1,0.2c-0.5,0-1.1,0-1.6,0
		c-0.6,0-1.2-0.1-1.9-0.2c0,0-0.1,0-0.1,0c-0.1-0.1-0.2-0.1-0.1-0.3c0.1-0.3,0.3-0.5,0.5-0.7c0.2-0.1,0.2-0.2,0.1-0.4
		c-0.1-0.3-0.2-0.6-0.3-0.9c-0.1-0.1-0.1-0.2-0.3-0.2c-0.2,0-0.5,0-0.7,0.1c-0.4,0-0.8,0.1-1.2,0.1c-0.1,0-0.2,0-0.2,0.1
		c0,0-0.1,0.1-0.1,0.1c0,0,0,0.1,0.1,0.1c0.1,0,0.3,0,0.4,0.1c0.3,0,0.6,0.1,0.8,0.2c0.2,0.1,0.3,0.2,0,0.4
		c-0.3,0.2-0.5,0.3-0.8,0.3c-0.1,0-0.2,0.1-0.1,0.2c0.1,0.2,0.1,0.3,0.2,0.4c0.1,0.3,0.3,0.6,0.4,0.9c0.1,0.3,0.2,0.5,0.3,0.8
		c0,0.2,0.1,0.4,0.1,0.6c0,0.1,0,0.2,0.1,0.3c0,0.2,0.1,0.4,0,0.6c0,0,0,0.1,0,0.1c-0.1,0.3-0.3,0.5-0.6,0.6c-0.3,0-0.6,0.1-0.8,0.1
		c-0.3,0-0.6,0-0.9,0c-0.2,0-0.2,0-0.2,0.2C51.1,22,51,22.3,51,22.6c0,0.2-0.1,0.4-0.1,0.6c0,0.2,0,0.4-0.1,0.7c0,0.1,0,0.2,0,0.2
		c0,0,0,0,0,0.1c0,0.2-0.1,0.4-0.1,0.6c0,0.2-0.1,0.4-0.1,0.6c0,0.1,0,0.2,0,0.2c0,0.1,0,0.1,0,0.2c0,0,0,0,0,0.1
		c0,0.2,0,0.4-0.1,0.6c0,0.2-0.1,0.4-0.1,0.6c0,0.2,0,0.4-0.1,0.6c0,0.1,0,0.2,0,0.2c0,0,0,0.1,0,0.1c0,0.2,0,0.5-0.1,0.7
		c-0.1,0.3-0.1,0.6-0.1,0.9c0,0.1-0.1,0.1-0.1,0.2c0,0.1,0,0.2,0.1,0.2c0.1,0,0.2,0,0.3,0c0.7,0.1,1.3,0.1,2,0.2
		c0.7,0.1,1.5,0.2,2.2,0.3c0.5,0.1,1,0.1,1.4,0.2c0.1,0,0.1,0,0.2,0.1c-0.1,0-0.1,0.1-0.1,0.1c-0.1,0-0.3,0-0.4,0
		c-0.8,0-1.6,0-2.4,0c-0.5,0-1.1,0-1.6,0c-0.6,0-1.3-0.1-1.9-0.1c-0.2,0-0.5,0-0.7,0c-0.7-0.1-1.4-0.1-2.1-0.2
		c-0.2,0-0.3-0.1-0.5-0.1c-0.1,0-0.1-0.1-0.1-0.2c0-0.2,0-0.4,0-0.6c0-0.1,0-0.2-0.1-0.3c-0.1-0.3-0.1-0.5-0.2-0.8c0,0,0-0.1,0-0.1
		c-0.1-0.3-0.1-0.6-0.2-0.9c0-0.2-0.1-0.5-0.1-0.7c0-0.1,0-0.2-0.1-0.4c-0.1-0.3-0.1-0.7-0.2-1c0-0.3-0.1-0.5-0.2-0.8
		c-0.1-0.3-0.1-0.5-0.1-0.8c0-0.2-0.1-0.3-0.1-0.5c-0.1-0.3-0.1-0.6-0.2-0.9c0-0.1,0-0.3-0.1-0.4c0-0.1-0.2-0.2-0.3-0.2
		c-0.1,0-0.3,0-0.4,0c-0.1,0-0.1,0-0.1,0.1c0,0,0,0.1,0,0.1c-0.1,0.3-0.1,0.6-0.2,0.9c-0.1,0.3-0.1,0.5-0.2,0.8c0,0.2,0,0.3-0.1,0.5
		c0,0.2-0.1,0.3-0.1,0.5c0,0.1,0,0.2-0.1,0.3c-0.1,0.3-0.1,0.6-0.2,0.9c-0.1,0.3-0.1,0.5-0.2,0.8c0,0.1,0,0.3-0.1,0.4
		c0,0.2-0.1,0.4-0.1,0.5c0,0.1,0,0.2,0,0.3c-0.1,0.3-0.1,0.6-0.2,0.9c-0.1,0.2-0.1,0.5-0.1,0.7c0,0.2,0,0.4-0.1,0.6c0,0,0,0.1,0,0.1
		c0,0.2,0,0.3-0.2,0.3c-0.1,0-0.3,0.1-0.4,0.1c-0.6,0.1-1.1,0.1-1.7,0.2c-0.5,0-0.9,0.1-1.4,0.1c-0.3,0-0.5,0-0.8,0
		c-0.5,0-1.1,0-1.6,0c-0.5,0-1.1,0-1.6,0c-0.5,0-1.1,0-1.6,0C32.7,31.1,32.5,31.1,32.4,30.9z M32.4,16.2c0.1-0.2,0.3-0.2,0.4-0.3
		c0.2-0.1,0.2-0.1,0.2-0.4c0-0.1-0.1-0.3-0.1-0.4c0-0.4,0-0.8-0.1-1.2c0,0,0-0.1,0-0.1c-0.1-0.2-0.1-0.4-0.1-0.6c0-0.4,0-0.8,0-1.2
		c0-0.1,0-0.3,0-0.4c0,0,0-0.1,0-0.1c0-0.1-0.1-0.2-0.2-0.1c-0.1,0-0.1,0.1-0.2,0.1c-0.8,0.6-1.5,1.4-2.1,2.3
		c-0.4,0.6-0.7,1.2-1.1,1.9c-0.2,0.4-0.4,0.9-0.6,1.3c-0.1,0.1-0.1,0.3-0.2,0.4c0,0.1,0,0.1,0.1,0.1c0,0,0.1,0,0.1,0
		c0.2,0,0.4,0,0.5,0c0.1,0,0.2,0,0.3,0c0-0.1-0.1-0.2-0.1-0.3c-0.1-0.2,0-0.3,0.2-0.3c0.1,0,0.3,0,0.4,0c0.5,0.1,0.9,0.3,1.4,0.5
		c0.1,0,0.2,0.1,0.3,0.1c0.2,0,0.3,0,0.5,0c0.2,0,0.4,0,0.6-0.1c0.1,0,0.1,0,0.2-0.1c0-0.1,0.1-0.3,0.1-0.4
		c-0.1-0.1-0.2-0.2-0.4-0.3C32.6,16.5,32.5,16.4,32.4,16.2z M52.2,11.2c0,0.4,0,0.7,0.1,1.1c0.1,0.5,0,1,0.1,1.5
		c0,0.4,0,0.8,0.1,1.1c0,0.1,0,0.1,0.2,0.1c0.1,0,0.3,0,0.4,0c0.5-0.1,1-0.1,1.5-0.2c0.1,0,0.1,0,0.2,0c0-0.1-0.1-0.2-0.1-0.2
		c-0.2-0.4-0.4-0.9-0.6-1.3c-0.3-0.6-0.6-1.1-1.1-1.6c-0.1-0.2-0.3-0.3-0.5-0.4C52.3,11.2,52.3,11.1,52.2,11.2z"/>
</g>
</svg>
